<svg width="110" height="36" viewBox="0 0 110 36" fill="none" xmlns="http://www.w3.org/2000/svg">
<path d="M102.448 11.194C103.978 11.194 105.308 11.5269 106.435 12.1927C107.583 12.8584 108.459 13.8067 109.064 15.0374C109.688 16.2479 110 17.6804 110 19.3347C110 20.9891 109.688 22.4317 109.064 23.6624C108.459 24.8729 107.583 25.8111 106.435 26.4768C105.308 27.1426 103.978 27.4755 102.448 27.4755C100.917 27.4755 99.5776 27.1426 98.4296 26.4768C97.2816 25.8111 96.3954 24.8729 95.7711 23.6624C95.1669 22.4317 94.8647 20.9891 94.8647 19.3347C94.8647 17.6804 95.1669 16.2479 95.7711 15.0374C96.3954 13.8067 97.2816 12.8584 98.4296 12.1927C99.5776 11.5269 100.917 11.194 102.448 11.194ZM102.448 13.9176C101.219 13.9176 100.252 14.4019 99.5474 15.3703C98.8425 16.3387 98.49 17.6602 98.49 19.3347C98.49 21.0093 98.8425 22.3308 99.5474 23.2992C100.252 24.2676 101.219 24.7518 102.448 24.7518C103.676 24.7518 104.643 24.2676 105.348 23.2992C106.053 22.3308 106.405 21.0093 106.405 19.3347C106.405 17.6602 106.053 16.3387 105.348 15.3703C104.643 14.4019 103.676 13.9176 102.448 13.9176Z" fill="black"/>
<path d="M85.3812 11.194C86.9119 11.194 88.2411 11.5269 89.369 12.1927C90.517 12.8584 91.3931 13.8067 91.9973 15.0374C92.6217 16.2479 92.9338 17.6804 92.9338 19.3347C92.9338 20.9891 92.6217 22.4317 91.9973 23.6624C91.3931 24.8729 90.517 25.8111 89.369 26.4768C88.2411 27.1426 86.9119 27.4755 85.3812 27.4755C83.8505 27.4755 82.5112 27.1426 81.3632 26.4768C80.2152 25.8111 79.329 24.8729 78.7047 23.6624C78.1005 22.4317 77.7984 20.9891 77.7984 19.3347C77.7984 17.6804 78.1005 16.2479 78.7047 15.0374C79.329 13.8067 80.2152 12.8584 81.3632 12.1927C82.5112 11.5269 83.8505 11.194 85.3812 11.194ZM85.3812 13.9176C84.1527 13.9176 83.1859 14.4019 82.481 15.3703C81.7761 16.3387 81.4236 17.6602 81.4236 19.3347C81.4236 21.0093 81.7761 22.3308 82.481 23.2992C83.1859 24.2676 84.1527 24.7518 85.3812 24.7518C86.6098 24.7518 87.5765 24.2676 88.2814 23.2992C88.9863 22.3308 89.3388 21.0093 89.3388 19.3347C89.3388 17.6602 88.9863 16.3387 88.2814 15.3703C87.5765 14.4019 86.6098 13.9176 85.3812 13.9176Z" fill="black"/>
<path d="M71.6726 27.0215V5.47412H75.1166V27.0215H71.6726Z" fill="black"/>
<path d="M61.7921 11.194C63.8464 11.194 65.4073 11.6984 66.4748 12.7071C67.5623 13.7159 68.1061 15.219 68.1061 17.2163V22.9663C68.1061 24.6207 68.237 25.9725 68.4989 27.0216H65.3872C65.2462 26.3961 65.1757 25.6799 65.1757 24.8729H65.1153C63.9874 26.5273 62.2654 27.3545 59.9493 27.3545C58.3783 27.3545 57.1196 26.9308 56.173 26.0834C55.2264 25.2159 54.7531 24.1163 54.7531 22.7847C54.7531 21.4733 55.1962 20.4242 56.0823 19.6374C56.9887 18.8505 58.5092 18.2856 60.6441 17.9426C61.9331 17.7207 63.3127 17.5694 64.783 17.4887V16.8834C64.783 15.794 64.5111 14.997 63.9673 14.4926C63.4436 13.9681 62.7186 13.7058 61.7921 13.7058C60.8657 13.7058 60.1406 13.9479 59.617 14.4321C59.0933 14.9163 58.8114 15.572 58.7711 16.3992H55.3875C55.4681 14.8659 56.0521 13.615 57.1397 12.6466C58.2474 11.6782 59.7982 11.194 61.7921 11.194ZM64.783 19.7282C63.4738 19.8089 62.2956 19.94 61.2483 20.1216C60.1406 20.3032 59.3551 20.5755 58.8919 20.9387C58.4488 21.3018 58.2273 21.8365 58.2273 22.5426C58.2273 23.2286 58.4589 23.7834 58.9221 24.2071C59.4055 24.6106 60.0802 24.8124 60.9462 24.8124C61.49 24.8124 62.0036 24.7317 62.487 24.5703C62.9703 24.3887 63.3832 24.1264 63.7256 23.7834C64.1284 23.3597 64.4003 22.9159 64.5413 22.4518C64.7024 21.9676 64.783 21.3119 64.783 20.4847V19.7282Z" fill="black"/>
<path d="M52.6424 24.3886C53.0855 24.3886 53.4379 24.3382 53.6997 24.2373V26.9307C53.0754 27.1123 52.4309 27.2031 51.7663 27.2031C50.1349 27.2031 48.9466 26.8399 48.2014 26.1136C47.4764 25.3671 47.1139 24.1566 47.1139 22.4821V14.2808H44.546V11.6479H47.1139V7.80444H50.5579V11.6479H53.5487V14.2808H50.5579V21.9676C50.5579 22.8351 50.719 23.4606 51.0412 23.8439C51.3635 24.2071 51.8972 24.3886 52.6424 24.3886Z" fill="black"/>
<path d="M0 17.8497C0 4.46239 4.46791 0 17.8718 0C31.2755 0 35.7435 4.46239 35.7435 17.8497C35.7435 31.237 31.2755 35.6994 17.8718 35.6994C4.46791 35.6994 0 31.237 0 17.8497Z" fill="black"/>
<path d="M19.361 14.8811C20.3006 13.7708 21.6811 13.5548 22.8048 14.039C23.9124 14.5163 24.7218 15.6438 24.7219 17.0655V27.1849H20.0085V21.5756L14.0178 28.6546L10.6289 25.2006L19.361 14.8811ZM26.5874 7.88818V12.5779H11.4957C10.2008 12.5778 9.15111 11.5277 9.15111 10.2328C9.15125 8.93796 10.2009 7.88833 11.4957 7.88818H26.5874Z" fill="white"/>
</svg>
