<svg width="36" height="36" viewBox="0 0 36 36" fill="none" xmlns="http://www.w3.org/2000/svg">
<path d="M0 17.8497C0 4.46239 4.46791 0 17.8718 0C31.2755 0 35.7435 4.46239 35.7435 17.8497C35.7435 31.237 31.2755 35.6994 17.8718 35.6994C4.46791 35.6994 0 31.237 0 17.8497Z" fill="white"/>
<path d="M19.361 14.8812C20.3006 13.7709 21.6811 13.5549 22.8048 14.0391C23.9124 14.5164 24.7218 15.6439 24.7219 17.0655V27.185H20.0085V21.5757L14.0178 28.6547L10.6289 25.2007L19.361 14.8812ZM26.5874 7.88824V12.578H11.4957C10.2008 12.5778 9.15112 11.5278 9.15112 10.2328C9.15127 8.93802 10.2009 7.88839 11.4957 7.88824H26.5874Z" fill="black"/>
</svg>
